# xmcd CD database file
#
# Track frame offsets:
#	150
#	6635
#	38442
#	83748
#	124722
#	160144
#	196037
#	234466
#	274779
#
# Disc length: 4442 seconds
#
# Revision: 1
# Processed by: cddbd v1.5.1PL0 Copyright (c) Steve Scherf et al.
# Submitted via: CDex 1.51
#
DISCID=67115809
DTITLE=Bill Bruford - (1999.01.25 early) Live at Kuumbwa Jazz Center, Santa Cruz - Disc 1
DYEAR=1999
DGENRE=Jazz
TTITLE0=intro
TTITLE1=My Heart  Declares A Holiday
TTITLE2=Never The Same Way Once
TTITLE3=Sarah's Still Life
TTITLE4=The Emperor's New Clothes
TTITLE5=Curiouser and Curiouser
TTITLE6=Dewey-eyed, Then Dancing
TTITLE7=A Part, And Yet Apart
TTITLE8=Bridge Of Inhibition
EXTD=YEAR: 1999
EXTT0=
EXTT1=
EXTT2=
EXTT3=
EXTT4=
EXTT5=
EXTT6=
EXTT7=
EXTT8=
PLAYORDER=
